<mxfile host="app.diagrams.net" agent="Mozilla/5.0 (Macintosh; Intel Mac OS X 10_15_7) AppleWebKit/537.36 (KHTML, like Gecko) Chrome/128.0.0.0 Safari/537.36" version="24.7.7">
  <diagram name="Page-1" id="8k4pCwR-GB4DaIrTq8DU">
    <mxGraphModel dx="2325" dy="2070" grid="1" gridSize="10" guides="1" tooltips="1" connect="1" arrows="1" fold="1" page="1" pageScale="1" pageWidth="850" pageHeight="1100" math="0" shadow="0">
      <root>
        <mxCell id="0" />
        <mxCell id="1" parent="0" />
        <mxCell id="CNFFRF9c3NUWuVFWwpjO-14" value="" style="shape=image;imageAspect=0;aspect=fixed;verticalLabelPosition=bottom;verticalAlign=top;sketch=1;hachureGap=4;jiggle=2;curveFitting=1;fontFamily=Architects Daughter;fontSource=https%3A%2F%2Ffonts.googleapis.com%2Fcss%3Ffamily%3DArchitects%2BDaughter;image=https://grafana.com/media/docs/grafana-cloud/infrastructure/grafanalogo.svg;" parent="1" vertex="1">
          <mxGeometry x="-40.7" y="537.25" width="79.58" height="86.5" as="geometry" />
        </mxCell>
        <mxCell id="CNFFRF9c3NUWuVFWwpjO-17" value="" style="endArrow=classic;html=1;rounded=0;sketch=1;hachureGap=4;jiggle=2;curveFitting=1;fontFamily=Architects Daughter;fontSource=https%3A%2F%2Ffonts.googleapis.com%2Fcss%3Ffamily%3DArchitects%2BDaughter;exitX=0.5;exitY=0;exitDx=0;exitDy=0;entryX=0.203;entryY=0.82;entryDx=0;entryDy=0;entryPerimeter=0;" parent="1" source="p5yFh3IkfnugvOjOft9q-1" target="p5yFh3IkfnugvOjOft9q-13" edge="1">
          <mxGeometry relative="1" as="geometry">
            <mxPoint x="-384.97249999999985" y="574.6700000000001" as="sourcePoint" />
            <mxPoint y="150" as="targetPoint" />
          </mxGeometry>
        </mxCell>
        <mxCell id="CNFFRF9c3NUWuVFWwpjO-40" value="" style="shape=image;imageAspect=0;aspect=fixed;verticalLabelPosition=bottom;verticalAlign=top;sketch=1;hachureGap=4;jiggle=2;curveFitting=1;fontFamily=Architects Daughter;fontSource=https%3A%2F%2Ffonts.googleapis.com%2Fcss%3Ffamily%3DArchitects%2BDaughter;image=https://upload.wikimedia.org/wikipedia/commons/e/e1/Google_Chrome_icon_%28February_2022%29.svg;" parent="1" vertex="1">
          <mxGeometry x="440.25" y="520" width="99.5" height="99.5" as="geometry" />
        </mxCell>
        <mxCell id="CNFFRF9c3NUWuVFWwpjO-46" value="&lt;font style=&quot;font-size: 22px;&quot;&gt;Alerts&lt;/font&gt;" style="text;html=1;align=center;verticalAlign=middle;resizable=0;points=[];autosize=1;strokeColor=none;fillColor=none;fontFamily=Architects Daughter;fontSource=https%3A%2F%2Ffonts.googleapis.com%2Fcss%3Ffamily%3DArchitects%2BDaughter;" parent="1" vertex="1">
          <mxGeometry x="32.15999999999997" y="413" width="90" height="40" as="geometry" />
        </mxCell>
        <mxCell id="CNFFRF9c3NUWuVFWwpjO-50" value="" style="endArrow=classic;html=1;rounded=0;sketch=1;hachureGap=4;jiggle=2;curveFitting=1;fontFamily=Architects Daughter;fontSource=https%3A%2F%2Ffonts.googleapis.com%2Fcss%3Ffamily%3DArchitects%2BDaughter;exitX=1;exitY=0.5;exitDx=0;exitDy=0;entryX=0;entryY=0.5;entryDx=0;entryDy=0;" parent="1" target="p5yFh3IkfnugvOjOft9q-2" edge="1" source="p5yFh3IkfnugvOjOft9q-1">
          <mxGeometry relative="1" as="geometry">
            <mxPoint x="-190" y="297" as="sourcePoint" />
            <mxPoint x="-150" y="350" as="targetPoint" />
          </mxGeometry>
        </mxCell>
        <mxCell id="CNFFRF9c3NUWuVFWwpjO-11" value="" style="shape=image;html=1;verticalAlign=top;verticalLabelPosition=bottom;labelBackgroundColor=#ffffff;imageAspect=0;aspect=fixed;image=https://cdn1.iconfinder.com/data/icons/social-media-2106/24/social_media_social_media_logo_docker-128.png;sketch=1;hachureGap=4;jiggle=2;curveFitting=1;fontFamily=Architects Daughter;fontSource=https%3A%2F%2Ffonts.googleapis.com%2Fcss%3Ffamily%3DArchitects%2BDaughter;" parent="1" vertex="1">
          <mxGeometry x="32.16" y="660" width="90" height="90" as="geometry" />
        </mxCell>
        <mxCell id="CNFFRF9c3NUWuVFWwpjO-13" value="" style="shape=image;imageAspect=0;aspect=fixed;verticalLabelPosition=bottom;verticalAlign=top;sketch=1;hachureGap=4;jiggle=2;curveFitting=1;fontFamily=Architects Daughter;fontSource=https%3A%2F%2Ffonts.googleapis.com%2Fcss%3Ffamily%3DArchitects%2BDaughter;image=https://upload.wikimedia.org/wikipedia/commons/c/c5/Nginx_logo.svg;" parent="1" vertex="1">
          <mxGeometry x="70" y="565.5" width="142.86" height="30" as="geometry" />
        </mxCell>
        <mxCell id="p5yFh3IkfnugvOjOft9q-1" value="" style="shape=image;imageAspect=0;aspect=fixed;verticalLabelPosition=bottom;verticalAlign=top;sketch=1;hachureGap=4;jiggle=2;curveFitting=1;fontFamily=Architects Daughter;fontSource=https%3A%2F%2Ffonts.googleapis.com%2Fcss%3Ffamily%3DArchitects%2BDaughter;image=https://upload.wikimedia.org/wikipedia/commons/3/38/Prometheus_software_logo.svg;" vertex="1" parent="1">
          <mxGeometry x="-40.69999999999999" y="373" width="80.7" height="80" as="geometry" />
        </mxCell>
        <mxCell id="p5yFh3IkfnugvOjOft9q-2" value="" style="shape=image;imageAspect=0;aspect=fixed;verticalLabelPosition=bottom;verticalAlign=top;sketch=1;hachureGap=4;jiggle=2;curveFitting=1;fontFamily=Architects Daughter;fontSource=https%3A%2F%2Ffonts.googleapis.com%2Fcss%3Ffamily%3DArchitects%2BDaughter;image=https://upload.wikimedia.org/wikipedia/commons/3/38/Prometheus_software_logo.svg;" vertex="1" parent="1">
          <mxGeometry x="122.16000000000001" y="373" width="80.7" height="80" as="geometry" />
        </mxCell>
        <mxCell id="p5yFh3IkfnugvOjOft9q-5" value="" style="endArrow=classic;html=1;rounded=0;sketch=1;hachureGap=4;jiggle=2;curveFitting=1;fontFamily=Architects Daughter;fontSource=https%3A%2F%2Ffonts.googleapis.com%2Fcss%3Ffamily%3DArchitects%2BDaughter;exitX=0.5;exitY=0;exitDx=0;exitDy=0;entryX=0.5;entryY=1;entryDx=0;entryDy=0;" edge="1" parent="1" source="CNFFRF9c3NUWuVFWwpjO-14" target="p5yFh3IkfnugvOjOft9q-1">
          <mxGeometry relative="1" as="geometry">
            <mxPoint x="50" y="423" as="sourcePoint" />
            <mxPoint x="132" y="423" as="targetPoint" />
          </mxGeometry>
        </mxCell>
        <mxCell id="p5yFh3IkfnugvOjOft9q-10" value="" style="endArrow=classic;html=1;rounded=0;sketch=1;hachureGap=4;jiggle=2;curveFitting=1;fontFamily=Architects Daughter;fontSource=https%3A%2F%2Ffonts.googleapis.com%2Fcss%3Ffamily%3DArchitects%2BDaughter;" edge="1" parent="1" target="p5yFh3IkfnugvOjOft9q-19">
          <mxGeometry relative="1" as="geometry">
            <mxPoint x="200" y="410" as="sourcePoint" />
            <mxPoint x="440" y="410" as="targetPoint" />
          </mxGeometry>
        </mxCell>
        <mxCell id="p5yFh3IkfnugvOjOft9q-11" value="" style="shape=message;html=1;outlineConnect=0;sketch=1;hachureGap=4;jiggle=2;curveFitting=1;fontFamily=Architects Daughter;fontSource=https%3A%2F%2Ffonts.googleapis.com%2Fcss%3Ffamily%3DArchitects%2BDaughter;" vertex="1" parent="p5yFh3IkfnugvOjOft9q-10">
          <mxGeometry width="20" height="14" relative="1" as="geometry">
            <mxPoint x="-10" y="-7" as="offset" />
          </mxGeometry>
        </mxCell>
        <mxCell id="p5yFh3IkfnugvOjOft9q-14" value="" style="group" vertex="1" connectable="0" parent="1">
          <mxGeometry x="-160" y="-90" width="770" height="300" as="geometry" />
        </mxCell>
        <mxCell id="p5yFh3IkfnugvOjOft9q-13" value="" style="ellipse;shape=cloud;whiteSpace=wrap;html=1;align=center;sketch=1;hachureGap=4;jiggle=2;curveFitting=1;fontFamily=Architects Daughter;fontSource=https%3A%2F%2Ffonts.googleapis.com%2Fcss%3Ffamily%3DArchitects%2BDaughter;" vertex="1" parent="p5yFh3IkfnugvOjOft9q-14">
          <mxGeometry width="769.9999999999999" height="300" as="geometry" />
        </mxCell>
        <mxCell id="CNFFRF9c3NUWuVFWwpjO-10" value="" style="shape=image;imageAspect=0;aspect=fixed;verticalLabelPosition=bottom;verticalAlign=top;sketch=1;hachureGap=4;jiggle=2;curveFitting=1;fontFamily=Architects Daughter;fontSource=https%3A%2F%2Ffonts.googleapis.com%2Fcss%3Ffamily%3DArchitects%2BDaughter;image=https://cockroachlabs.cloud/assets/images/logos/lockup-default.svg;" parent="p5yFh3IkfnugvOjOft9q-14" vertex="1">
          <mxGeometry x="127.14777777777779" y="111.11111111111111" width="459.1579044834308" height="76.17446393762184" as="geometry" />
        </mxCell>
        <mxCell id="p5yFh3IkfnugvOjOft9q-15" value="&lt;font style=&quot;font-size: 22px;&quot;&gt;Send eMail Alert&lt;/font&gt;" style="text;html=1;align=center;verticalAlign=middle;resizable=0;points=[];autosize=1;strokeColor=none;fillColor=none;fontFamily=Architects Daughter;fontSource=https%3A%2F%2Ffonts.googleapis.com%2Fcss%3Ffamily%3DArchitects%2BDaughter;" vertex="1" parent="1">
          <mxGeometry x="220" y="413" width="190" height="40" as="geometry" />
        </mxCell>
        <mxCell id="p5yFh3IkfnugvOjOft9q-16" value="" style="endArrow=classic;html=1;rounded=0;sketch=1;hachureGap=4;jiggle=2;curveFitting=1;fontFamily=Architects Daughter;fontSource=https%3A%2F%2Ffonts.googleapis.com%2Fcss%3Ffamily%3DArchitects%2BDaughter;entryX=0;entryY=0.5;entryDx=0;entryDy=0;" edge="1" parent="1" target="CNFFRF9c3NUWuVFWwpjO-40">
          <mxGeometry relative="1" as="geometry">
            <mxPoint x="220" y="570" as="sourcePoint" />
            <mxPoint x="302" y="521.75" as="targetPoint" />
          </mxGeometry>
        </mxCell>
        <mxCell id="p5yFh3IkfnugvOjOft9q-19" value="Actor" style="shape=umlActor;verticalLabelPosition=bottom;verticalAlign=top;html=1;outlineConnect=0;sketch=1;hachureGap=4;jiggle=2;curveFitting=1;fontFamily=Architects Daughter;fontSource=https%3A%2F%2Ffonts.googleapis.com%2Fcss%3Ffamily%3DArchitects%2BDaughter;" vertex="1" parent="1">
          <mxGeometry x="470" y="374" width="40" height="66" as="geometry" />
        </mxCell>
        <mxCell id="p5yFh3IkfnugvOjOft9q-20" value="" style="shape=image;imageAspect=0;aspect=fixed;verticalLabelPosition=bottom;verticalAlign=top;sketch=1;hachureGap=4;jiggle=2;curveFitting=1;fontFamily=Architects Daughter;fontSource=https%3A%2F%2Ffonts.googleapis.com%2Fcss%3Ffamily%3DArchitects%2BDaughter;image=https://grafana.com/media/docs/loki/logo-grafana-loki.png;" vertex="1" parent="1">
          <mxGeometry x="88.38" y="456" width="70" height="70" as="geometry" />
        </mxCell>
        <mxCell id="p5yFh3IkfnugvOjOft9q-21" value="" style="shape=image;imageAspect=0;aspect=fixed;verticalLabelPosition=bottom;verticalAlign=top;sketch=1;hachureGap=4;jiggle=2;curveFitting=1;fontFamily=Architects Daughter;fontSource=https%3A%2F%2Ffonts.googleapis.com%2Fcss%3Ffamily%3DArchitects%2BDaughter;image=https://min.io/resources/img/logo/MINIO_Bird.png;" vertex="1" parent="1">
          <mxGeometry x="158.38" y="455" width="44.48" height="90" as="geometry" />
        </mxCell>
        <mxCell id="p5yFh3IkfnugvOjOft9q-22" value="&lt;div style=&quot;text-align: left;&quot;&gt;&lt;span style=&quot;font-size: 22px;&quot;&gt;1. Enables metrics collection&lt;/span&gt;&lt;/div&gt;&lt;div style=&quot;text-align: left;&quot;&gt;&lt;span style=&quot;font-size: 22px;&quot;&gt;2. Scrapes metrics&lt;/span&gt;&lt;span style=&quot;font-size: 22px;&quot;&gt;&lt;br&gt;&lt;/span&gt;&lt;/div&gt;" style="edgeLabel;resizable=0;html=1;;align=center;verticalAlign=middle;sketch=1;hachureGap=4;jiggle=2;curveFitting=1;fontFamily=Architects Daughter;fontSource=https%3A%2F%2Ffonts.googleapis.com%2Fcss%3Ffamily%3DArchitects%2BDaughter;" connectable="0" vertex="1" parent="1">
          <mxGeometry x="20" y="270" as="geometry">
            <mxPoint x="-7" y="7" as="offset" />
          </mxGeometry>
        </mxCell>
      </root>
    </mxGraphModel>
  </diagram>
</mxfile>
